# xmcd
# 
# Track frame offsets:
#     183
#     30990
#     66505
#     81773
#     98998
#     126285
#     148113
#     164158
#     184053
# 
# Disc length: 3241
# 
# Revision: 9
# Processed by: cddbd v1.5.2PL0 Copyright (c) Steve Scherf et al.
# Submitted via: BonkEnc v1.0.15
# 
DISCID=810ca709
DTITLE=Louis Frémaux - City of Birmingham Symphony - Fauré: Requiem, Cantique de Jean Racine, Ballade 
DYEAR=1977
DGENRE=Classical
TTITLE0=Requiem, op.48 - 1. Introit and Kyrie
TTITLE1=Requiem, op.48 - 2. Offertoire
TTITLE2=Requiem, op.48 - 3. Sanctus
TTITLE3=Requiem, op.48 - 4. Pie Jesu
TTITLE4=Requiem, op.48 - 5. Agnus Dei
TTITLE5=Requiem, op.48 - 6. Libera Me
TTITLE6=Requiem, op.48 - 7. In Paradisum
TTITLE7=Cantique de Jean Racine, op.11
TTITLE8=Ballade for Piano and Orchestra, op.19
EXTD=
EXTT0=
EXTT1=
EXTT2=
EXTT3=
EXTT4=
EXTT5=
EXTT6=
EXTT7=
EXTT8=
PLAYORDER=
